<svg className="w-2 lg:w-3 ml-2" viewBox="0 0 26 16" fill="none" xmlns="http://www.w3.org/2000/svg">
    <path fill-rule="evenodd" clip-rule="evenodd" d="M0.760327 0.812467C1.24731 0.313549 1.90771 0.0332712 2.59631 0.0332712C3.2849 0.0332712 3.94531 0.313549 4.43229 0.812467L12.9838 9.57616L21.5352 0.812467C21.7748 0.558285 22.0613 0.35554 22.3782 0.216063C22.695 0.0765868 23.0358 0.00317115 23.3806 0.000100483C23.7254 -0.00297018 24.0673 0.064365 24.3865 0.198178C24.7056 0.331991 24.9956 0.529602 25.2394 0.779479C25.4832 1.02936 25.676 1.3265 25.8066 1.65356C25.9372 1.98063 26.0029 2.33107 25.9999 2.68444C25.9969 3.0378 25.9253 3.38702 25.7892 3.71171C25.6531 4.0364 25.4552 4.33006 25.2072 4.57556L14.8197 15.2208C14.3328 15.7197 13.6724 16 12.9838 16C12.2952 16 11.6348 15.7197 11.1478 15.2208L0.760327 4.57556C0.27349 4.07649 0 3.3997 0 2.69401C0 1.98833 0.27349 1.31154 0.760327 0.812467Z" fill="black" />
</svg>