<svg viewBox="0 0 37 37" fill="none" xmlns="http://www.w3.org/2000/svg">
    <path d="M36.0942 16.6714L29.5871 15.2145L28.8957 9.11896C28.8356 8.58247 28.4147 8.1593 27.8783 8.10149L21.8822 7.42394L21.1677 1.02774C21.1307 0.71094 20.9665 0.421885 20.7098 0.232265C20.4555 0.0403331 20.134 -0.0406022 19.8172 0.0195211L13.2778 1.17574C12.8592 1.24974 12.517 1.54342 12.3806 1.94578L5.92667 21.2616L2.84887 24.3395L2.03028 25.1581C0.721468 26.4669 0 28.2104 0 30.0627C0 31.915 0.721468 33.6585 2.0326 34.9674C3.34141 36.2785 5.08496 37 6.93719 37C8.78942 37 10.533 36.2785 11.8418 34.9674L12.6604 34.1488L15.7382 31.0709L35.0536 24.6169C35.4444 24.4851 35.7381 24.1544 35.8213 23.7497L36.9775 18.0288C37.1001 17.4137 36.7093 16.8101 36.0942 16.6714ZM21.3758 9.6902L26.7012 10.2937L27.3071 15.6216L12.7806 26.0969L10.9006 24.2169L21.3758 9.6902ZM14.3554 3.331L19.0056 2.51009L19.6346 8.15243L9.24496 22.5611L8.25988 21.576L14.3554 3.331ZM3.66746 33.3325C2.79338 32.4584 2.3124 31.2976 2.3124 30.0627C2.3124 28.8278 2.79338 27.667 3.66746 26.7929L10.2069 33.3325C8.45875 35.0807 5.41563 35.0807 3.66746 33.3325ZM11.8418 31.6976L5.30233 25.158L6.93719 23.5208L13.479 30.0627L11.8418 31.6976ZM33.6847 22.6375L15.4237 28.74L14.4386 27.7549L28.787 17.4067L34.4848 18.6809L33.6847 22.6375Z" fill="white" />
</svg>