<svg viewBox="0 0 37 37" fill="none" xmlns="http://www.w3.org/2000/svg">
    <path d="M18.5 0C8.31344 0 0 8.31409 0 18.5C0 28.6866 8.31409 37 18.5 37C28.6866 37 37 28.6859 37 18.5C37 8.31344 28.6859 0 18.5 0ZM5.44153 8.70223C7.3187 11.2205 8.42935 14.2477 8.63625 17.416H2.20482C2.41924 14.1606 3.59088 11.1626 5.44153 8.70223ZM2.20482 19.584H8.63625C8.42957 22.7544 7.31913 25.7795 5.44146 28.2977C3.59088 25.8373 2.41924 22.8394 2.20482 19.584ZM17.416 34.7952C13.3097 34.5248 9.6135 32.7305 6.88872 29.9733C9.22182 27.0095 10.5884 23.3847 10.8075 19.584H17.416V34.7952ZM17.416 17.416H10.8075C10.5881 13.6179 9.22138 9.99014 6.88901 7.02646C9.61371 4.26938 13.3099 2.47524 17.416 2.20482V17.416ZM34.7952 17.416H28.3638C28.5704 14.2456 29.6809 11.2205 31.5585 8.7023C33.4091 11.1627 34.5808 14.1606 34.7952 17.416ZM19.584 2.20482C23.6903 2.47524 27.3865 4.26953 30.1113 7.02675C27.7782 9.99051 26.4116 13.6153 26.1925 17.416H19.584V2.20482ZM19.584 34.7952V19.584H26.1925C26.4121 23.3795 27.7793 27.0099 30.111 29.9735C27.3863 32.7306 23.6901 34.5248 19.584 34.7952ZM31.5581 28.2982C29.6814 25.7798 28.5708 22.7503 28.3637 19.584H34.7952C34.5808 22.8396 33.409 25.8378 31.5581 28.2982Z" fill="white" />
</svg>