<svg viewBox="0 0 44 44" fill="none" xmlns="http://www.w3.org/2000/svg">
    <path d="M13.1111 10.8889V2M30.8889 10.8889V2M10.8889 19.7778H33.1111M6.44444 42H37.5556C38.7343 42 39.8648 41.5317 40.6983 40.6983C41.5317 39.8648 42 38.7343 42 37.5556V10.8889C42 9.71015 41.5317 8.57969 40.6983 7.74619C39.8648 6.9127 38.7343 6.44444 37.5556 6.44444H6.44444C5.2657 6.44444 4.13524 6.9127 3.30175 7.74619C2.46825 8.57969 2 9.71015 2 10.8889V37.5556C2 38.7343 2.46825 39.8648 3.30175 40.6983C4.13524 41.5317 2.2657 42 6.44444 42Z" stroke="black" stroke-width="3" stroke-linecap="round" stroke-linejoin="round" />
</svg>