<svg viewBox="0 0 60 60" fill="none" xmlns="http://www.w3.org/2000/svg">
    <path fill-rule="evenodd" clip-rule="evenodd" d="M30 60C37.9565 60 45.5871 56.8393 51.2132 51.2132C56.8393 45.5871 60 37.9565 60 30C60 22.0435 56.8393 14.4129 51.2132 8.7868C45.5871 3.16071 37.9565 0 30 0C22.0435 0 14.4129 3.16071 8.7868 8.7868C3.16071 14.4129 0 22.0435 0 30C0 37.9565 3.16071 45.5871 8.7868 51.2132C14.4129 56.8393 22.0435 60 30 60ZM33.75 15C33.75 14.0054 33.3549 13.0516 32.6516 12.3484C31.9484 11.6451 30.9946 11.25 30 11.25C29.0054 11.25 28.0516 11.6451 27.3484 12.3484C26.6451 13.0516 26.25 14.0054 26.25 15V30C26.2502 30.9945 26.6454 31.9482 27.3488 32.6512L37.9538 43.26C38.3022 43.6084 38.7158 43.8848 39.171 44.0733C39.6262 44.2619 40.1141 44.359 40.6069 44.359C41.0996 44.359 41.5875 44.2619 42.0427 44.0733C42.498 43.8848 42.9116 43.6084 43.26 43.26C43.6084 42.9116 43.8848 42.498 44.0733 42.0427C44.2619 41.5875 44.359 41.0996 44.359 40.6069C44.359 40.1141 44.2619 39.6262 44.0733 39.171C43.8848 38.7158 43.6084 38.3022 43.26 37.9538L33.75 28.4475V15Z" fill="white" />
</svg>