 <svg viewBox="0 0 36 37" fill="none" xmlns="http://www.w3.org/2000/svg">
    <path fill-rule="evenodd" clip-rule="evenodd" d="M0.879276 36.1667C0.316276 35.6329 0 34.9091 0 34.1544C0 33.3996 0.316276 32.6758 0.879276 32.1421L15.8949 17.9108C16.4581 17.3772 17.2218 17.0775 18.0181 17.0775C18.8145 17.0775 19.5782 17.3772 20.1413 17.9108L35.157 32.1421C35.704 32.6789 36.0067 33.3978 35.9999 34.1441C35.993 34.8904 35.6772 35.6043 35.1204 36.132C34.5636 36.6597 33.8104 36.959 33.023 36.9655C32.2356 36.972 31.477 36.6851 30.9106 36.1667L18.0181 23.9477L5.1257 36.1667C4.56253 36.7002 3.79881 37 3.00249 37C2.20617 37 1.44245 36.7002 0.879276 36.1667ZM0.879276 19.0892C0.316276 18.5554 0 17.8316 0 17.0769C0 16.3222 0.316276 15.5983 0.879276 15.0646L15.8949 0.833342C16.4581 0.299753 17.2218 0 18.0181 0C18.8145 0 19.5782 0.299753 20.1413 0.833342L35.157 15.0646C35.704 15.6014 36.0067 16.3204 35.9999 17.0666C35.993 17.8129 35.6772 18.5268 35.1204 19.0545C34.5636 19.5822 33.8104 19.8816 33.023 19.888C32.2356 19.8945 31.477 19.6076 30.9106 19.0892L18.0181 6.87023L5.1257 19.0892C4.56253 19.6228 3.79881 19.9225 3.00249 19.9225C2.20617 19.9225 1.44245 19.6228 0.879276 19.0892Z" fill="white" />
</svg>