 <svg viewBox="0 0 37 37" fill="none" xmlns="http://www.w3.org/2000/svg">
    <path d="M37 25.6135C33.4154 27.2348 29.4219 27.7254 25.5515 27.0199C21.6811 26.3144 18.1176 24.4462 15.3357 21.6643C12.5538 18.8824 10.6856 15.3189 9.98012 11.4485C9.27458 7.57806 9.76518 3.58455 11.3865 0C8.53282 1.28965 6.03456 3.25236 4.10609 5.71974C2.17763 8.18712 0.876528 11.0855 0.314417 14.1663C-0.247695 17.247 -0.0540361 20.4181 0.878778 23.4076C1.81159 26.397 3.45571 29.1155 5.67009 31.3299C7.88447 33.5443 10.603 35.1884 13.5924 36.1212C16.5819 37.054 19.753 37.2477 22.8338 36.6856C25.9145 36.1235 28.8129 34.8224 31.2803 32.8939C33.7476 30.9654 35.7103 28.4672 37 25.6135Z" fill="white" />
</svg>